<?xml version="1.0" encoding="UTF-8" standalone="no" ?>
<!DOCTYPE svg PUBLIC "-//W3C//DTD SVG 1.1//EN" "http://www.w3.org/Graphics/SVG/1.1/DTD/svg11.dtd">
<svg xmlns="http://www.w3.org/2000/svg" xmlns:xlink="http://www.w3.org/1999/xlink" version="1.1" width="500" height="500" viewBox="0 0 500 500" xml:space="preserve">
<desc>Created with Fabric.js 5.2.4</desc>
<defs>
</defs>
<rect x="0" y="0" width="100%" height="100%" fill="transparent"></rect>
<g transform="matrix(0 0 0 0 0 0)" id="ae2209e4-a0be-4c76-9c47-ade38a157859"  >
</g>
<g transform="matrix(1 0 0 1 250 250)" id="105635a9-b98c-41be-b0c3-d1d020cb3405"  >
<rect style="stroke: none; stroke-width: 1; stroke-dasharray: none; stroke-linecap: butt; stroke-dashoffset: 0; stroke-linejoin: miter; stroke-miterlimit: 4; fill: rgb(255,255,255); fill-rule: nonzero; opacity: 1; visibility: hidden;" vector-effect="non-scaling-stroke"  x="-250" y="-250" rx="0" ry="0" width="500" height="500" />
</g>
<g transform="matrix(1.54 0 0 1.54 249.47 249.47)"  >
<path style="stroke: none; stroke-width: 1; stroke-dasharray: none; stroke-linecap: butt; stroke-dashoffset: 0; stroke-linejoin: miter; stroke-miterlimit: 4; fill: rgb(153,153,153); fill-rule: evenodd; opacity: 1;" vector-effect="non-scaling-stroke"  transform=" translate(-119.5, -139.49)" d="M 239.5 57.5 C 239.5 111.833 239.5 166.167 239.5 220.5 C 235.096 241.405 222.429 254.238 201.5 259 C 146.167 259.667 90.8333 259.667 35.5 259 C 15.6642 253.336 3.66424 240.502 -0.5 220.5 C -0.5 166.167 -0.5 111.833 -0.5 57.5 C 3.50201 39.6545 14.1687 27.4879 31.5 21 C 60.6201 19.8492 89.7867 19.3492 119 19.5 C 146.833 19.6667 174.667 19.8333 202.5 20 C 222.463 25.1286 234.796 37.6286 239.5 57.5 Z" stroke-linecap="round" />
</g>
<g transform="matrix(1.54 0 0 1.54 257.84 246.86)"  >
<path style="stroke: none; stroke-width: 1; stroke-dasharray: none; stroke-linecap: butt; stroke-dashoffset: 0; stroke-linejoin: miter; stroke-miterlimit: 4; fill: rgb(255,255,255); fill-rule: evenodd; opacity: 1;" vector-effect="non-scaling-stroke"  transform=" translate(-121.55, -137.42)" d="M 110.5 59.5 C 138.169 59.3334 165.835 59.5 193.5 60 C 195.333 61.8333 197.167 63.6667 199 65.5 C 199.667 93.1667 199.667 120.833 199 148.5 C 194.16 155.477 188.327 156.311 181.5 151 C 174.5 144 167.5 137 160.5 130 C 159.833 129.333 159.167 129.333 158.5 130 C 131.527 157.306 104.527 184.64 77.5 212 C 72.1314 216.546 66.798 216.546 61.5 212 C 56.6667 207.167 51.8333 202.333 47 197.5 C 42.4544 192.131 42.4544 186.798 47 181.5 C 74.5 154 102 126.5 129.5 99 C 120.969 90.8034 112.802 82.3034 105 73.5 C 103.349 67.3602 105.182 62.6936 110.5 59.5 Z" stroke-linecap="round" />
</g>
<g transform="matrix(0 0 0 0 -27.89 0)"  >
<g style=""   >
</g>
</g>
<g transform="matrix(1.53 0 0 1.53 258.72 246.71)"  >
<path style="stroke: none; stroke-width: 1; stroke-dasharray: none; stroke-linecap: butt; stroke-dashoffset: 0; stroke-linejoin: miter; stroke-miterlimit: 4; fill: rgb(255,255,255); fill-rule: nonzero; opacity: 1;" vector-effect="non-scaling-stroke"  transform=" translate(-3.56, -78.25)" d="M 0 0 C 0.7822998 -0.0049649 1.56459961 -0.00992981 2.37060547 -0.01504517 C 4.96542228 -0.0296812 7.56017794 -0.03647158 10.1550293 -0.04199219 C 11.95623273 -0.04774297 13.75743614 -0.05350072 15.55863953 -0.05926514 C 19.33906337 -0.06977958 23.11946593 -0.07561917 26.89990234 -0.07910156 C 31.7422081 -0.08458365 36.58423228 -0.10860365 41.42644978 -0.13707352 C 45.14880695 -0.15570617 48.87109645 -0.16090586 52.59349632 -0.16243744 C 54.37846603 -0.16546368 56.16343456 -0.17349125 57.94835854 -0.18662262 C 60.44756026 -0.20369445 62.94607598 -0.20180012 65.4453125 -0.1953125 C 66.18160385 -0.20452728 66.9178952 -0.21374207 67.67649841 -0.22323608 C 72.10820511 -0.18723347 74.95909503 0.33374109 78.41674805 3.16113281 C 81.71621662 7.21055235 81.85682727 11.05300183 81.83666992 16.08496094 C 81.84513947 16.86769882 81.85360901 17.65043671 81.86233521 18.45689392 C 81.88567009 21.03555699 81.88672836 23.61362231 81.88549805 26.19238281 C 81.89260081 27.98930092 81.90029998 29.78621676 81.90856934 31.58312988 C 81.92200537 35.34568593 81.92358645 39.10803216 81.91772461 42.87060547 C 81.91182364 47.6895608 81.94244013 52.50751035 81.98284149 57.32627106 C 82.00870133 61.03580133 82.01159759 64.74508867 82.00794983 68.45469666 C 82.00964212 70.23130322 82.01929513 72.00792088 82.03709412 73.78443909 C 82.05925535 76.26941164 82.04959893 78.75233855 82.03198242 81.23730469 C 82.04524567 81.9688829 82.05850891 82.70046112 82.07217407 83.45420837 C 82.00667018 87.43508522 81.54772744 89.0059891 78.9407959 92.09387207 C 78.10786011 92.77606812 77.27492432 93.45826416 76.41674805 94.16113281 C 76.08674805 94.49113281 75.75674805 94.82113281 75.41674805 95.16113281 C 72.14632549 95.62833604 69.56332183 95.81425234 66.61621094 94.13549805 C 60.92731512 89.78613657 55.92226235 84.89762706 50.91674805 79.78613281 C 50.09432617 78.9546875 49.2719043 78.12324219 48.42456055 77.26660156 C 46.41727254 75.23597299 44.41484271 73.20080115 42.41674805 71.16113281 C 38.64856834 72.72820938 36.25871814 75.07157963 33.39208984 77.94287109 C 32.90531769 78.4277449 32.41854553 78.91261871 31.91702271 79.41218567 C 30.31174613 81.01376355 28.71377762 82.62242183 27.1159668 84.23144531 C 25.99538594 85.35321953 24.87443378 86.47462296 23.75312805 87.59567261 C 21.40229339 89.94807104 19.05485308 92.30378761 16.70996094 94.66210938 C 13.72278554 97.66618606 10.72915937 100.66372758 7.7331419 103.65898323 C 5.41553295 105.97686603 3.10055448 108.29736132 0.78641701 110.61870956 C -0.31526238 111.72354506 -1.41752547 112.82779887 -2.52041054 113.93143082 C -7.88669287 119.30532264 -13.17551944 124.69668702 -18.11875916 130.46881104 C -21.91239024 134.8526117 -26.11266089 138.87517369 -30.20825195 142.97363281 C -31.14585024 143.92340559 -32.08335077 144.87327487 -33.02075195 145.82324219 C -34.37040039 147.17579102 -34.37040039 147.17579102 -35.74731445 148.55566406 C -36.5563623 149.3688208 -37.36541016 150.18197754 -38.19897461 151.01977539 C -41.38328219 153.8796527 -44.17292999 155.87906842 -48.39575195 156.72363281 C -56.14256121 155.35654883 -61.94136316 148.0012061 -67.02075195 142.41113281 C -67.95564453 141.40373047 -67.95564453 141.40373047 -68.90942383 140.37597656 C -74.41003576 134.40251551 -74.41003576 134.40251551 -74.95825195 130.47363281 C -74.46744119 126.13813773 -72.61959794 123.27108719 -69.58325195 120.16113281 C -68.92325195 120.16113281 -68.26325195 120.16113281 -67.58325195 120.16113281 C -67.25325195 119.17113281 -66.92325195 118.18113281 -66.58325195 117.16113281 C -64.9465332 115.58300781 -64.9465332 115.58300781 -62.89575195 113.91113281 C -59.45216679 111.01159701 -56.58999466 107.97975832 -53.80981445 104.44628906 C -53.20266602 103.81013672 -53.20266602 103.81013672 -52.58325195 103.16113281 C -51.92325195 103.16113281 -51.26325195 103.16113281 -50.58325195 103.16113281 C -50.33575195 102.54238281 -50.08825195 101.92363281 -49.83325195 101.28613281 C -48.35554433 98.77402985 -47.14370019 98.40005938 -44.58325195 97.16113281 C -44.08825195 95.67613281 -44.08825195 95.67613281 -43.58325195 94.16113281 C -41.91137695 92.51269531 -41.91137695 92.51269531 -39.83325195 90.78613281 C -36.59440759 88.03802244 -33.54889698 85.20693041 -30.58325195 82.16113281 C -29.73762695 81.33613281 -28.89200195 80.51113281 -28.02075195 79.66113281 C -25.52596571 77.19529523 -25.52596571 77.19529523 -23.39575195 74.34863281 C -22.79762695 73.62675781 -22.19950195 72.90488281 -21.58325195 72.16113281 C -20.92325195 72.16113281 -20.26325195 72.16113281 -19.58325195 72.16113281 C -19.08825195 70.67613281 -19.08825195 70.67613281 -18.58325195 69.16113281 C -16.9465332 67.58300781 -16.9465332 67.58300781 -14.89575195 65.91113281 C -12.20493386 63.63612497 -9.81324691 61.38872995 -7.58325195 58.66113281 C -5.45038295 56.06585318 -3.21011825 53.89423845 -0.64575195 51.72363281 C 3.48279632 48.22351482 6.96240696 44.31713693 10.41674805 40.16113281 C 6.09661313 34.98366879 1.54283892 30.19199934 -3.27075195 25.47363281 C -4.58953637 24.18048075 -5.90602446 22.8849818 -7.2199707 21.58691406 C -7.79448975 21.02399658 -8.36900879 20.4610791 -8.9609375 19.88110352 C -12.106744 16.54593319 -13.49952211 14.91470136 -14.02075195 10.22363281 C -13.87584924 6.13585095 -12.54640639 4.03713565 -9.58325195 1.16113281 C -6.53241807 -0.36428413 -3.34776538 0.0050411 0 0 Z" stroke-linecap="round" />
</g>
</svg>