<?xml version="1.0" encoding="UTF-8" standalone="no"?>
<!DOCTYPE svg PUBLIC "-//W3C//DTD SVG 1.1//EN" "http://www.w3.org/Graphics/SVG/1.1/DTD/svg11.dtd">
<svg xmlns="http://www.w3.org/2000/svg" xmlns:xlink="http://www.w3.org/1999/xlink" version="1.1" width="500" height="500" viewBox="0 0 500 500" xml:space="preserve">
<desc>Created with Fabric.js 5.2.4</desc>
<defs>
</defs>
<g transform="matrix(0 0 0 0 0 0)" id="d00ba4f1-f2d2-423a-8380-be49ad032ee6">
</g>
<g transform="matrix(1 0 0 1 250 250)" id="51631a4a-cad6-40a3-bb3f-5cd4adf6e0fe">
<rect style="stroke: none; stroke-width: 1; stroke-dasharray: none; stroke-linecap: butt; stroke-dashoffset: 0; stroke-linejoin: miter; stroke-miterlimit: 4; fill: rgb(255,255,255); fill-rule: nonzero; opacity: 1; visibility: hidden;" vector-effect="non-scaling-stroke" x="-250" y="-250" rx="0" ry="0" width="500" height="500"/>
</g>
<g transform="matrix(0.46 0 0 0.46 458.56 451.16)">
<path style="stroke: none; stroke-width: 1; stroke-dasharray: none; stroke-linecap: butt; stroke-dashoffset: 0; stroke-linejoin: miter; stroke-miterlimit: 4; fill: rgb(209,208,218); fill-rule: nonzero; opacity: 1;" vector-effect="non-scaling-stroke" transform=" translate(-5.52, -3.45)" d="M 0 0 C 1.64574566 -0.02688151 3.29161413 -0.04634123 4.9375 -0.0625 C 5.85402344 -0.07410156 6.77054688 -0.08570313 7.71484375 -0.09765625 C 10 0 10 0 11 1 C 11.04080783 2.99958364 11.04254356 5.00045254 11 7 C 10.34 7 9.68 7 9 7 C 9 5.35 9 3.7 9 2 C 8.34 2 7.68 2 7 2 C 7 3.65 7 5.3 7 7 C 6.34 7 5.68 7 5 7 C 5 5.35 5 3.7 5 2 C 4.01 2 3.02 2 2 2 C 2 3.65 2 5.3 2 7 C 1.34 7 0.68 7 0 7 C 0 4.69 0 2.38 0 0 Z" stroke-linecap="round"/>
</g>
<g transform="matrix(0.46 0 0 0.46 468.7 451.39)">
<path style="stroke: none; stroke-width: 1; stroke-dasharray: none; stroke-linecap: butt; stroke-dashoffset: 0; stroke-linejoin: miter; stroke-miterlimit: 4; fill: rgb(219,218,226); fill-rule: nonzero; opacity: 1;" vector-effect="non-scaling-stroke" transform=" translate(0.08, -4.06)" d="M 0 0 C 2.5 0.125 2.5 0.125 3.5 1.125 C 3.54080783 3.12458364 3.54254356 5.12545254 3.5 7.125 C 1.125 7.75 1.125 7.75 -1.5 8.125 C -3.5 6.125 -3.5 6.125 -3.6875 3.5625 C -3.4324847 0.24730106 -3.33009823 0.16650491 0 0 Z" stroke-linecap="round"/>
</g>
<g transform="matrix(0.46 0 0 0.46 179.41 336.09)">
<path style="stroke: none; stroke-width: 1; stroke-dasharray: none; stroke-linecap: butt; stroke-dashoffset: 0; stroke-linejoin: miter; stroke-miterlimit: 4; fill: rgb(153,153,153); fill-rule: nonzero; opacity: 1;" vector-effect="non-scaling-stroke" transform=" translate(-137.79, -175.38)" d="M 0 0 C 1.94223893 -0.02151035 3.88438277 -0.05552991 5.82617188 -0.10253906 C 18.51297194 -0.40586509 27.48712829 0.42894297 38.86938477 6.4050293 C 42.02092283 7.69782416 45.21683935 8.84308742 48.43188477 9.9675293 C 49.25978516 10.25781006 50.08768555 10.54809082 50.94067383 10.84716797 C 59.6848986 13.82174537 68.60792621 15.92158395 77.62329102 17.89233398 C 79.59879369 18.34326394 81.5566024 18.87028137 83.51000977 19.40893555 C 90.01538777 21.04498474 96.71941772 21.73164488 103.36938477 22.5300293 C 104.48003799 22.66359833 104.48003799 22.66359833 105.61312866 22.79986572 C 142.76100368 27.15793249 181.25381338 24.68881105 216.93530273 13.02563477 C 218.94747857 12.37997067 220.96932609 11.78083661 222.99829102 11.19018555 C 230.77274926 8.90088689 237.99358514 6.19400076 245.29516602 2.6394043 C 249.89775913 0.43239455 253.83953248 0.23076304 258.84985352 0.2019043 C 260.04501839 0.19151878 260.04501839 0.19151878 261.264328 0.18092346 C 263.86189627 0.16353405 266.45926081 0.15732092 269.05688477 0.1550293 C 269.93975159 0.15368988 270.82261841 0.15235046 271.73223877 0.15097046 C 285.13012689 0.15538738 298.19210395 0.77174633 311.42944336 2.99926758 C 313.73507486 3.38269359 316.04171766 3.71206993 318.35766602 4.02612305 C 366.72712685 10.98759486 414.96908954 42.92073557 444.2199707 81.34716797 C 445.45582767 83.02013774 446.66747682 84.70752943 447.86938477 86.4050293 C 448.28446289 86.98639648 448.69954102 87.56776367 449.12719727 88.16674805 C 469.74766285 117.32636349 481.90077106 149.20600946 486.49975586 184.58862305 C 486.76041318 186.57471478 487.05855531 188.55606248 487.38340759 190.53266907 C 487.91710621 194.78528301 488.01710876 198.90012146 488.01464844 203.17919922 C 488.01968636 204.4539209 488.01968636 204.4539209 488.02482605 205.75439453 C 488.0342803 208.54811082 488.03627656 211.34176678 488.03735352 214.13549805 C 488.04057058 216.09214807 488.04393499 218.04879786 488.04743958 220.00544739 C 488.05341751 224.10324663 488.05528091 228.20102483 488.0546875 232.29882812 C 488.05458611 237.52249531 488.06822095 242.74602587 488.08545971 247.96966076 C 488.09663815 252.01140449 488.0986049 256.05311583 488.09807777 260.09487343 C 488.09924976 262.01918317 488.10362712 263.94349396 488.11141014 265.86778831 C 488.15972481 279.04990042 488.03316494 291.65182332 482.74438477 303.9675293 C 482.43654053 304.69222412 482.12869629 305.41691895 481.81152344 306.16357422 C 473.96871762 323.91703216 459.20863083 337.58498476 441.55688477 345.1550293 C 440.88181885 345.44933838 440.20675293 345.74364746 439.51123047 346.046875 C 426.21956234 351.46304535 412.05195412 350.69376569 397.97052002 350.67245483 C 395.62867834 350.67619422 393.28683792 350.68079689 390.94499946 350.68618548 C 385.19861688 350.69711714 379.45228433 350.6987906 373.70589304 350.69646377 C 366.8177288 350.69418372 359.92959207 350.70348927 353.04143578 350.71302251 C 338.76177991 350.73233432 324.48213844 350.73798966 310.20247105 350.73913662 C 299.17314299 350.74005672 288.14382055 350.74417865 277.11449432 350.75053787 C 273.93643944 350.75233303 270.75838455 350.75411266 267.58032966 350.75588763 C 266.79019495 350.75632972 266.00006024 350.75677182 265.18598205 350.75722731 C 242.97025246 350.76953042 220.75452481 350.77742897 198.53879166 350.77654076 C 197.28318825 350.77649402 197.28318825 350.77649402 196.00221911 350.77644634 C 191.75987644 350.77628013 187.51753377 350.77608205 183.2751911 350.77587692 C 182.4326886 350.77583703 181.59018611 350.77579714 180.72215324 350.77575604 C 179.01840935 350.77567517 177.31466546 350.77559157 175.61092157 350.77550526 C 149.10493164 350.77427982 122.59899287 350.78929382 96.09301758 350.81665039 C 66.29449786 350.8473927 36.49601177 350.86458163 6.69747519 350.86272395 C 3.51816289 350.86257469 0.33885058 350.86247727 -2.84046173 350.86241531 C -3.62325443 350.86239201 -4.40604713 350.8623687 -5.21256082 350.86234468 C -17.7912626 350.86228322 -30.36991983 350.87503639 -42.94860837 350.89227984 C -55.59682319 350.90925966 -68.24497305 350.91119176 -80.89319298 350.8980612 C -87.74071374 350.89133519 -94.58808777 350.89087887 -101.43559265 350.9087677 C -107.71021684 350.924512 -113.98455263 350.92162044 -120.25916985 350.90419944 C -122.52287757 350.90113262 -124.78660688 350.90474979 -127.05028912 350.91591959 C -142.53932894 350.98725515 -157.34976623 350.21042426 -171.38061523 342.8425293 C -172.03553955 342.50592285 -172.69046387 342.16931641 -173.36523438 341.82250977 C -180.30547046 338.06275716 -185.68764745 333.05399004 -191.13061523 327.4050293 C -191.96463867 326.57874023 -192.79866211 325.75245117 -193.65795898 324.90112305 C -199.33479626 319.01648141 -202.88253936 312.87461052 -206.13061523 305.4050293 C -206.52120117 304.5594043 -206.91178711 303.7137793 -207.31420898 302.8425293 C -212.78527911 290.33722616 -212.44294811 277.1706551 -212.43139648 263.79174805 C -212.43529593 261.89101571 -212.4396331 259.99028423 -212.44438171 258.08955383 C -212.4518103 254.11484959 -212.45157959 250.14023418 -212.44628906 246.16552734 C -212.44167403 242.13644195 -212.44851545 238.10765948 -212.46679688 234.07861328 C -212.65696479 191.8685859 -212.65696479 191.8685859 -209.13061523 172.4050293 C -208.92229525 171.07941957 -208.71786588 169.75319023 -208.51806641 168.42626953 C -203.25745817 134.8450929 -185.93671032 102.11468461 -164.13061523 76.4050293 C -163.41905273 75.56456055 -162.70749023 74.7240918 -161.97436523 73.8581543 C -159.74773941 71.31581287 -157.46099151 68.85281384 -155.13061523 66.4050293 C -154.32648193 65.56004883 -154.32648193 65.56004883 -153.50610352 64.69799805 C -119.69957919 29.41516573 -76.3397005 8.06467391 -27.94702148 1.7746582 C -25.92105876 1.50876816 -23.89985448 1.20565401 -21.8828125 0.87890625 C -14.62514504 -0.03768771 -7.30690854 0.0606103 0 0 Z" stroke-linecap="round"/>
</g>
<g transform="matrix(0.46 0 0 0.46 179.98 139.17)">
<path style="stroke: none; stroke-width: 1; stroke-dasharray: none; stroke-linecap: butt; stroke-dashoffset: 0; stroke-linejoin: miter; stroke-miterlimit: 4; fill: rgb(153,153,153); fill-rule: nonzero; opacity: 1;" vector-effect="non-scaling-stroke" transform=" translate(56.8, -191.79)" d="M 0 0 C 1.20052002 0.40992187 1.20052002 0.40992187 2.42529297 0.828125 C 25.65453172 8.7717589 46.66937696 18.72343818 66 34 C 66.86625 34.66128906 67.7325 35.32257813 68.625 36.00390625 C 81.04924952 45.74732812 92.55717098 57.3536535 102 70 C 102.45294434 70.60360352 102.90588867 71.20720703 103.37255859 71.82910156 C 118.85304796 92.61587655 129.69024325 114.81657798 136.41918945 139.86303711 C 136.84588839 141.43298071 137.28962573 142.99831885 137.74291992 144.56079102 C 147.04734128 177.13058805 146.33227544 217.02173525 135 249 C 134.72671875 249.80034668 134.4534375 250.60069336 134.171875 251.42529297 C 120.27055025 292.07635967 96.59539254 328.94092736 61 354 C 60.4337793 354.40524902 59.86755859 354.81049805 59.28417969 355.22802734 C 41.82208386 367.64906889 23.17447032 375.95317529 3 383 C 1.82179688 383.43183594 0.64359375 383.86367188 -0.5703125 384.30859375 C -11.3209733 387.99248685 -22.7943705 389.33952381 -34 391 C -35.27230469 391.19722656 -36.54460937 391.39445312 -37.85546875 391.59765625 C -63.14248406 394.59221382 -89.85187294 391.74234292 -114 384 C -115.73820247 383.46719086 -117.47648713 382.93464976 -119.21484375 382.40234375 C -130.40212665 378.90100358 -140.72875014 374.6319133 -151 369 C -152.19008071 368.36714339 -153.38018454 367.73433026 -154.5703125 367.1015625 C -179.46211398 353.45840509 -202.65778762 333.21344739 -219 310 C -219.40524902 309.4337793 -219.81049805 308.86755859 -220.22802734 308.28417969 C -232.64906889 290.82208386 -240.95317529 272.17447032 -248 252 C -248.43183594 250.82179688 -248.86367187 249.64359375 -249.30859375 248.4296875 C -252.99248685 237.6790267 -254.33952381 226.2056295 -256 215 C -256.19722656 213.72769531 -256.39445313 212.45539063 -256.59765625 211.14453125 C -259.59221382 185.85751594 -256.74234292 159.14812706 -249 135 C -248.46719086 133.26179753 -247.93464976 131.52351287 -247.40234375 129.78515625 C -243.90100358 118.59787335 -239.6319133 108.27124986 -234 98 C -233.36714339 96.80991929 -232.73433026 95.61981546 -232.1015625 94.4296875 C -227.13535058 85.36888453 -221.29299757 77.17431224 -215 69 C -214.29359375 68.06671875 -213.5871875 67.1334375 -212.859375 66.171875 C -203.17465812 53.82570921 -191.54493906 42.41291401 -179 33 C -178.44425293 32.5683252 -177.88850586 32.13665039 -177.31591797 31.69189453 C -157.84645454 16.6418478 -135.52328605 5.99478928 -112 -1 C -111.28908203 -1.21833496 -110.57816406 -1.43666992 -109.84570312 -1.66162109 C -75.72128518 -11.97108758 -33.65082145 -11.92498656 0 0 Z" stroke-linecap="round"/>
</g>
<g transform="matrix(0.46 0 0 0.46 391.76 208.88)">
<path style="stroke: none; stroke-width: 1; stroke-dasharray: none; stroke-linecap: butt; stroke-dashoffset: 0; stroke-linejoin: miter; stroke-miterlimit: 4; fill: rgb(153,153,153); fill-rule: nonzero; opacity: 1;" vector-effect="non-scaling-stroke" transform=" translate(129.85, -150.44)" d="M 0 0 C 0.69996094 -0.00773437 1.39992188 -0.01546875 2.12109375 -0.0234375 C 11.00687336 1.42672173 16.04233782 7.28168933 22.1328125 13.44921875 C 23.14150398 14.45775498 24.15086459 15.46562236 25.16085815 16.47285461 C 27.2700675 18.580684 29.37217439 20.69527407 31.46923828 22.81518555 C 34.14142193 25.5156973 36.82882063 28.20042451 39.52156258 30.88041973 C 41.6068781 32.9587373 43.68469145 35.04442834 45.76031113 37.13242531 C 46.74771945 38.12431212 47.73717164 39.11416907 48.7287941 40.10184288 C 61.29889222 52.64529491 61.29889222 52.64529491 63.26171875 59.9921875 C 63.21049001 69.86225798 57.48079276 76.90635417 50.75161743 83.66471863 C 49.68734024 84.70273369 49.68734024 84.70273369 48.6015625 85.76171875 C 47.852164 86.50782913 47.1027655 87.25393951 46.33065796 88.0226593 C 43.95887394 90.37884902 41.57328255 92.7204955 39.1875 95.0625 C 37.59548466 96.64300485 36.00433144 98.22437859 34.4140625 99.80664062 C 32.87316588 101.33411054 31.33152383 102.86082891 29.7890625 104.38671875 C 28.730858 105.43384285 28.730858 105.43384285 27.65127563 106.50212097 C 26.63014175 107.504002 26.63014175 107.504002 25.58837891 108.52612305 C 24.70951523 109.39022041 24.70951523 109.39022041 23.81289673 110.27177429 C 21.92805352 112.03335288 20.00773592 113.70808874 18.04818726 115.38435364 C 12.35808835 120.3447852 7.08717265 125.7268245 1.765625 131.07421875 C 0.5953981 132.24636824 -0.5750592 133.41828773 -1.74572754 134.58999634 C -4.25270404 137.10011757 -6.75812242 139.6117798 -9.2623291 142.12466431 C -13.22777301 146.10370759 -17.19709717 150.07886507 -21.16699219 154.0534668 C -29.59346856 162.49101164 -38.01570586 170.93278205 -46.4375 179.375 C -55.53160842 188.49116267 -64.62645353 197.60658303 -73.7262001 206.71711826 C -77.66683735 210.66271698 -81.60502826 214.61073597 -85.5413208 218.56066895 C -87.99623112 221.02307457 -90.45324384 223.48337431 -92.91081238 225.94312668 C -94.04359188 227.07776725 -95.17551221 228.21326639 -96.30647278 229.34972 C -101.63984141 234.70816015 -106.98928214 239.97954792 -112.73800659 244.89841652 C -115.21398598 247.04964008 -117.50954754 249.35819342 -119.80859375 251.69604492 C -120.52258835 252.41945824 -120.52258835 252.41945824 -121.25100708 253.15748596 C -122.26796954 254.18812815 -123.28381921 255.21986939 -124.2986145 256.25264549 C -125.9108812 257.89195172 -127.52782423 259.52650976 -129.14624023 261.15974426 C -133.74188904 265.79775993 -138.33459676 270.43857351 -142.91113281 275.09545898 C -145.72564584 277.95870094 -148.5500085 280.81190467 -151.38088989 283.65896034 C -152.4497915 284.73769749 -153.51504395 285.82006433 -154.5763855 286.90624046 C -166.65463923 299.26102116 -166.65463923 299.26102116 -175.1953125 300.90625 C -175.97648438 300.8959375 -176.75765625 300.885625 -177.5625 300.875 C -178.34882812 300.8853125 -179.13515625 300.895625 -179.9453125 300.90625 C -185.7449888 299.66995537 -190.00684645 295.09897683 -194.06741333 291.01251221 C -194.60057942 290.48387723 -195.13374552 289.95524225 -195.68306816 289.41058803 C -197.45639214 287.64985639 -199.2225597 285.88212346 -200.98876953 284.11425781 C -202.26353901 282.84547671 -203.53871653 281.57710545 -204.81427002 280.30911255 C -208.26936948 276.87164652 -211.71798776 273.42774901 -215.16491938 269.98209476 C -217.32038492 267.82805263 -219.47726905 265.67544165 -221.63467026 263.52333832 C -229.16564717 256.01085133 -236.69145231 248.49322798 -244.21240234 240.97070312 C -251.21628564 233.96561801 -258.23124945 226.97176738 -265.25150216 219.98309064 C -271.28511804 213.97564532 -277.31097806 207.96049441 -283.33088386 201.93931079 C -286.92346992 198.34621542 -290.51907533 194.75627635 -294.12250137 191.17404938 C -297.51146132 187.80448525 -300.89064036 184.42540766 -304.26264191 181.03887558 C -305.49914079 179.80028936 -306.73903952 178.56508617 -307.98262405 177.33361435 C -321.51481192 163.92469744 -321.51481192 163.92469744 -322.96875 155.1796875 C -322.9584375 154.21289062 -322.948125 153.24609375 -322.9375 152.25 C -322.9478125 151.27804687 -322.958125 150.30609375 -322.96875 149.3046875 C -321.55281756 141.49623656 -314.3178049 135.94904436 -308.95703125 130.59375 C -308.02960617 129.66203979 -307.10218109 128.73032959 -306.14665222 127.77038574 C -304.18733436 125.80363385 -302.22422359 123.84076482 -300.25854492 121.88037109 C -297.75999254 119.38759724 -295.27296074 116.88367584 -292.7889452 114.3764267 C -290.39363357 111.96269379 -287.98721408 109.56014664 -285.58203125 107.15625 C -284.70045853 106.26546753 -283.8188858 105.37468506 -282.91059875 104.45690918 C -270.69685024 92.33294789 -270.69685024 92.33294789 -263.36328125 90.68359375 C -262.50089844 90.72613281 -261.63851562 90.76867187 -260.75 90.8125 C -259.44482422 90.84150391 -259.44482422 90.84150391 -258.11328125 90.87109375 C -251.09654612 92.19249351 -246.86626608 96.5271569 -242.05517578 101.41674805 C -241.34228897 102.12919678 -240.62940216 102.84164551 -239.89491272 103.57568359 C -237.5503609 105.9223183 -235.21660271 108.27938518 -232.8828125 110.63671875 C -231.25536586 112.26976309 -229.62725375 113.90214448 -227.99850464 115.53388977 C -223.72082819 119.82300114 -219.45223901 124.12104634 -215.18548584 128.42102051 C -210.82703112 132.810205 -206.46003402 137.19087197 -202.09375 141.57226562 C -193.53328912 150.16486682 -184.98240512 158.7669312 -176.4375 167.375 C -169.73171487 161.86993432 -163.68300262 155.74724408 -157.57055664 149.60571289 C -156.38077267 148.41400711 -155.19075887 147.22253075 -154.00053406 146.03126526 C -151.4482519 143.47583426 -148.89752883 140.91886093 -146.34800911 138.3606739 C -142.31122577 134.31030924 -138.27057837 130.2638141 -134.22935486 126.21788025 C -124.92143563 116.89794309 -115.61853982 107.57299695 -106.31569672 98.24799347 C -97.78838084 89.70046552 -89.25999249 81.15401493 -80.72753614 72.61161798 C -76.71581588 68.59493459 -72.70654227 64.5758301 -68.69916356 60.55481541 C -66.19945672 58.04761423 -63.69764834 55.54251802 -61.19528389 53.03796959 C -60.04154221 51.88236644 -58.88865991 50.72590451 -57.7367363 49.56848907 C -52.33947162 44.14631957 -46.94971552 38.76834049 -41.10511875 33.82086468 C -38.08080689 31.19871516 -35.31641003 28.31697621 -32.5234375 25.453125 C -31.2554952 24.16768572 -29.98725742 22.88253785 -28.71875 21.59765625 C -26.7561002 19.60397058 -24.79591773 17.60802761 -22.84082031 15.60693359 C -20.92932091 13.65300939 -19.00841302 11.70874257 -17.0859375 9.765625 C -16.21852432 8.87028046 -16.21852432 8.87028046 -15.33358765 7.95684814 C -10.96568958 3.56173156 -6.50039316 -0.07156396 0 0 Z" stroke-linecap="round"/>
</g>
<g transform="matrix(0.46 0 0 0.46 458.49 451.16)">
<path style="stroke: none; stroke-width: 1; stroke-dasharray: none; stroke-linecap: butt; stroke-dashoffset: 0; stroke-linejoin: miter; stroke-miterlimit: 4; fill: rgb(209,208,218); fill-rule: nonzero; opacity: 1;" vector-effect="non-scaling-stroke" transform=" translate(-5.52, -3.45)" d="M 0 0 C 1.64574566 -0.02688151 3.29161413 -0.04634123 4.9375 -0.0625 C 5.85402344 -0.07410156 6.77054688 -0.08570313 7.71484375 -0.09765625 C 10 0 10 0 11 1 C 11.04080783 2.99958364 11.04254356 5.00045254 11 7 C 10.34 7 9.68 7 9 7 C 9 5.35 9 3.7 9 2 C 8.34 2 7.68 2 7 2 C 7 3.65 7 5.3 7 7 C 6.34 7 5.68 7 5 7 C 5 5.35 5 3.7 5 2 C 4.01 2 3.02 2 2 2 C 2 3.65 2 5.3 2 7 C 1.34 7 0.68 7 0 7 C 0 4.69 0 2.38 0 0 Z" stroke-linecap="round"/>
</g>
<g transform="matrix(0.46 0 0 0.46 468.63 451.39)">
<path style="stroke: none; stroke-width: 1; stroke-dasharray: none; stroke-linecap: butt; stroke-dashoffset: 0; stroke-linejoin: miter; stroke-miterlimit: 4; fill: rgb(219,218,226); fill-rule: nonzero; opacity: 1;" vector-effect="non-scaling-stroke" transform=" translate(0.08, -4.06)" d="M 0 0 C 2.5 0.125 2.5 0.125 3.5 1.125 C 3.54080783 3.12458364 3.54254356 5.12545254 3.5 7.125 C 1.125 7.75 1.125 7.75 -1.5 8.125 C -3.5 6.125 -3.5 6.125 -3.6875 3.5625 C -3.4324847 0.24730106 -3.33009823 0.16650491 0 0 Z" stroke-linecap="round"/>
</g>
</svg>