<?xml version="1.0" encoding="UTF-8" standalone="no" ?>
<!DOCTYPE svg PUBLIC "-//W3C//DTD SVG 1.1//EN" "http://www.w3.org/Graphics/SVG/1.1/DTD/svg11.dtd">
<svg xmlns="http://www.w3.org/2000/svg" xmlns:xlink="http://www.w3.org/1999/xlink" version="1.1" width="500" height="500" viewBox="0 0 500 500" xml:space="preserve">
<desc>Created with Fabric.js 5.2.4</desc>
<defs>
</defs>
<rect x="0" y="0" width="100%" height="100%" fill="transparent"></rect>
<g transform="matrix(Infinity NaN NaN Infinity 0 0)" id="d00ba4f1-f2d2-423a-8380-be49ad032ee6"  >
</g>
<g transform="matrix(1 0 0 1 250 250)" id="51631a4a-cad6-40a3-bb3f-5cd4adf6e0fe"  >
<rect style="stroke: none; stroke-width: 1; stroke-dasharray: none; stroke-linecap: butt; stroke-dashoffset: 0; stroke-linejoin: miter; stroke-miterlimit: 4; fill: rgb(255,255,255); fill-rule: nonzero; opacity: 1; visibility: hidden;" vector-effect="non-scaling-stroke"  x="-250" y="-250" rx="0" ry="0" width="500" height="500" />
</g>
<g transform="matrix(0.46 0 0 0.46 647.51 664.81)"  >
<path style="stroke: none; stroke-width: 1; stroke-dasharray: none; stroke-linecap: butt; stroke-dashoffset: 0; stroke-linejoin: miter; stroke-miterlimit: 4; fill: rgb(209,208,218); fill-rule: nonzero; opacity: 1;" vector-effect="non-scaling-stroke"  transform=" translate(-5.52, -3.45)" d="M 0 0 C 1.64574566 -0.02688151 3.29161413 -0.04634123 4.9375 -0.0625 C 5.85402344 -0.07410156 6.77054688 -0.08570313 7.71484375 -0.09765625 C 10 0 10 0 11 1 C 11.04080783 2.99958364 11.04254356 5.00045254 11 7 C 10.34 7 9.68 7 9 7 C 9 5.35 9 3.7 9 2 C 8.34 2 7.68 2 7 2 C 7 3.65 7 5.3 7 7 C 6.34 7 5.68 7 5 7 C 5 5.35 5 3.7 5 2 C 4.01 2 3.02 2 2 2 C 2 3.65 2 5.3 2 7 C 1.34 7 0.68 7 0 7 C 0 4.69 0 2.38 0 0 Z" stroke-linecap="round" />
</g>
<g transform="matrix(0.46 0 0 0.46 657.65 665.04)"  >
<path style="stroke: none; stroke-width: 1; stroke-dasharray: none; stroke-linecap: butt; stroke-dashoffset: 0; stroke-linejoin: miter; stroke-miterlimit: 4; fill: rgb(219,218,226); fill-rule: nonzero; opacity: 1;" vector-effect="non-scaling-stroke"  transform=" translate(0.08, -4.06)" d="M 0 0 C 2.5 0.125 2.5 0.125 3.5 1.125 C 3.54080783 3.12458364 3.54254356 5.12545254 3.5 7.125 C 1.125 7.75 1.125 7.75 -1.5 8.125 C -3.5 6.125 -3.5 6.125 -3.6875 3.5625 C -3.4324847 0.24730106 -3.33009823 0.16650491 0 0 Z" stroke-linecap="round" />
</g>
<g transform="matrix(0.46 0 0 0.46 647.44 664.81)"  >
<path style="stroke: none; stroke-width: 1; stroke-dasharray: none; stroke-linecap: butt; stroke-dashoffset: 0; stroke-linejoin: miter; stroke-miterlimit: 4; fill: rgb(209,208,218); fill-rule: nonzero; opacity: 1;" vector-effect="non-scaling-stroke"  transform=" translate(-5.52, -3.45)" d="M 0 0 C 1.64574566 -0.02688151 3.29161413 -0.04634123 4.9375 -0.0625 C 5.85402344 -0.07410156 6.77054688 -0.08570313 7.71484375 -0.09765625 C 10 0 10 0 11 1 C 11.04080783 2.99958364 11.04254356 5.00045254 11 7 C 10.34 7 9.68 7 9 7 C 9 5.35 9 3.7 9 2 C 8.34 2 7.68 2 7 2 C 7 3.65 7 5.3 7 7 C 6.34 7 5.68 7 5 7 C 5 5.35 5 3.7 5 2 C 4.01 2 3.02 2 2 2 C 2 3.65 2 5.3 2 7 C 1.34 7 0.68 7 0 7 C 0 4.69 0 2.38 0 0 Z" stroke-linecap="round" />
</g>
<g transform="matrix(0.46 0 0 0.46 657.58 665.04)"  >
<path style="stroke: none; stroke-width: 1; stroke-dasharray: none; stroke-linecap: butt; stroke-dashoffset: 0; stroke-linejoin: miter; stroke-miterlimit: 4; fill: rgb(219,218,226); fill-rule: nonzero; opacity: 1;" vector-effect="non-scaling-stroke"  transform=" translate(0.08, -4.06)" d="M 0 0 C 2.5 0.125 2.5 0.125 3.5 1.125 C 3.54080783 3.12458364 3.54254356 5.12545254 3.5 7.125 C 1.125 7.75 1.125 7.75 -1.5 8.125 C -3.5 6.125 -3.5 6.125 -3.6875 3.5625 C -3.4324847 0.24730106 -3.33009823 0.16650491 0 0 Z" stroke-linecap="round" />
</g>
<g transform="matrix(1 0 0 1 470.84 800.15)"  >
<path style="stroke: none; stroke-width: 1; stroke-dasharray: none; stroke-linecap: butt; stroke-dashoffset: 0; stroke-linejoin: miter; stroke-miterlimit: 4; fill: rgb(175,175,175); fill-rule: evenodd; opacity: 1;" vector-effect="non-scaling-stroke"  transform=" translate(-531.38, -836)" d="M 532.5 811.5 C 531.847 827.931 531.18 844.265 530.5 860.5 C 529.848 843.799 530.515 827.466 532.5 811.5 Z" stroke-linecap="round" />
</g>
<g transform="matrix(1 0 0 1 898.96 935.15)"  >
<path style="stroke: none; stroke-width: 1; stroke-dasharray: none; stroke-linecap: butt; stroke-dashoffset: 0; stroke-linejoin: miter; stroke-miterlimit: 4; fill: rgb(221,220,227); fill-rule: evenodd; opacity: 1;" vector-effect="non-scaling-stroke"  transform=" translate(-959.5, -971)" d="M 958.5 965.5 C 959.787 966.871 960.453 968.705 960.5 971 C 960.167 972.833 959.833 974.667 959.5 976.5 C 958.798 972.711 958.465 969.045 958.5 965.5 Z" stroke-linecap="round" />
</g>
<g transform="matrix(1 0 0 1 889.38 936.12)"  >
<path style="stroke: none; stroke-width: 1; stroke-dasharray: none; stroke-linecap: butt; stroke-dashoffset: 0; stroke-linejoin: miter; stroke-miterlimit: 4; fill: rgb(206,205,215); fill-rule: evenodd; opacity: 1;" vector-effect="non-scaling-stroke"  transform=" translate(-949.92, -971.97)" d="M 944.5 968.5 C 947.85 968.335 951.183 968.502 954.5 969 C 955.769 971.139 955.769 973.305 954.5 975.5 C 953.548 973.955 953.215 972.288 953.5 970.5 C 952.5 970.5 951.5 970.5 950.5 970.5 C 950.167 977.167 949.833 977.167 949.5 970.5 C 948.5 970.5 947.5 970.5 946.5 970.5 C 946.785 972.288 946.452 973.955 945.5 975.5 C 944.526 973.257 944.192 970.924 944.5 968.5 Z" stroke-linecap="round" />
</g>
<g transform="matrix(1 0 0 1 904.05 936.13)"  >
<path style="stroke: none; stroke-width: 1; stroke-dasharray: none; stroke-linecap: butt; stroke-dashoffset: 0; stroke-linejoin: miter; stroke-miterlimit: 4; fill: rgb(207,206,216); fill-rule: evenodd; opacity: 1;" vector-effect="non-scaling-stroke"  transform=" translate(-964.6, -971.99)" d="M 964.5 968.5 C 965.376 968.369 966.043 968.702 966.5 969.5 C 965.173 971.311 964.173 973.311 963.5 975.5 C 962.167 972.862 962.5 970.529 964.5 968.5 Z" stroke-linecap="round" />
</g>
<g transform="matrix(1 0 0 1 911.4 936.39)"  >
<path style="stroke: none; stroke-width: 1; stroke-dasharray: none; stroke-linecap: butt; stroke-dashoffset: 0; stroke-linejoin: miter; stroke-miterlimit: 4; fill: rgb(206,205,216); fill-rule: evenodd; opacity: 1;" vector-effect="non-scaling-stroke"  transform=" translate(-971.95, -972.25)" d="M 969.5 968.5 C 975.704 968.314 977.037 970.814 973.5 976 C 968.632 975.711 967.299 973.211 969.5 968.5 Z" stroke-linecap="round" />
</g>
<g transform="matrix(1 0 0 1 911.98 936.67)"  >
<path style="stroke: none; stroke-width: 1; stroke-dasharray: none; stroke-linecap: butt; stroke-dashoffset: 0; stroke-linejoin: miter; stroke-miterlimit: 4; fill: rgb(244,244,245); fill-rule: evenodd; opacity: 1;" vector-effect="non-scaling-stroke"  transform=" translate(-972.52, -972.52)" d="M 970.5 970.5 C 971.833 970.5 973.167 970.5 974.5 970.5 C 974.833 973.5 973.5 974.833 970.5 974.5 C 970.5 973.167 970.5 971.833 970.5 970.5 Z" stroke-linecap="round" />
</g>
<g transform="matrix(0.37 0 0 0.37 250.01 250)"  >
<path style="stroke: none; stroke-width: 1; stroke-dasharray: none; stroke-linecap: butt; stroke-dashoffset: 0; stroke-linejoin: miter; stroke-miterlimit: 4; fill: rgb(153,153,153); fill-rule: evenodd; opacity: 1;" vector-effect="non-scaling-stroke"  transform=" translate(-499.53, -499.5)" d="M 164.5 -0.5 C 296.833 -0.5 429.167 -0.5 561.5 -0.5 C 561.333 89.8339 561.5 180.167 562 270.5 C 566.5 293.667 580.333 307.5 603.5 312 C 693.833 312.5 784.166 312.667 874.5 312.5 C 874.667 527.834 874.5 743.167 874 958.5 C 869.654 981.346 856.154 995.012 833.5 999.5 C 610.5 999.5 387.5 999.5 164.5 999.5 C 142.402 994.567 129.235 980.9 125 958.5 C 124.333 652.167 124.333 345.833 125 39.5 C 129.68 17.6535 142.847 4.32014 164.5 -0.5 Z" stroke-linecap="round" />
</g>
<g transform="matrix(0.37 0 0 0.37 343.62 109.63)"  >
<path style="stroke: none; stroke-width: 1; stroke-dasharray: none; stroke-linecap: butt; stroke-dashoffset: 0; stroke-linejoin: miter; stroke-miterlimit: 4; fill: rgb(153,153,153); fill-rule: evenodd; opacity: 1;" vector-effect="non-scaling-stroke"  transform=" translate(-749.61, -124.5)" d="M 624.5 -0.5 C 630.167 -0.5 635.833 -0.5 641.5 -0.5 C 651.64 1.05388 660.64 5.22055 668.5 12 C 732.667 76.1667 796.833 140.333 861 204.5 C 863.333 207.5 865.667 210.5 868 213.5 C 873.288 224.894 875.455 236.894 874.5 249.5 C 791.167 249.5 707.833 249.5 624.5 249.5 C 624.5 166.167 624.5 82.8333 624.5 -0.5 Z" stroke-linecap="round" />
</g>
<g transform="matrix(0.37 0 0 0.37 191.42 121.41)"  >
<path style="stroke: none; stroke-width: 1; stroke-dasharray: none; stroke-linecap: butt; stroke-dashoffset: 0; stroke-linejoin: miter; stroke-miterlimit: 4; fill: rgb(255,255,255); fill-rule: evenodd; opacity: 1;" vector-effect="non-scaling-stroke"  transform=" translate(-343, -155.97)" d="M 260.5 124.5 C 315.501 124.333 370.501 124.5 425.5 125 C 430.944 126.624 434.444 130.124 436 135.5 C 436.667 149.167 436.667 162.833 436 176.5 C 433.744 181.757 429.91 185.257 424.5 187 C 370.167 187.667 315.833 187.667 261.5 187 C 255.693 185.193 251.859 181.36 250 175.5 C 249.333 162.167 249.333 148.833 250 135.5 C 252.02 130.315 255.52 126.648 260.5 124.5 Z" stroke-linecap="round" />
</g>
<g transform="matrix(0.37 0 0 0.37 191.42 168.2)"  >
<path style="stroke: none; stroke-width: 1; stroke-dasharray: none; stroke-linecap: butt; stroke-dashoffset: 0; stroke-linejoin: miter; stroke-miterlimit: 4; fill: rgb(255,255,255); fill-rule: evenodd; opacity: 1;" vector-effect="non-scaling-stroke"  transform=" translate(-343, -280.97)" d="M 260.5 249.5 C 315.501 249.333 370.501 249.5 425.5 250 C 430.944 251.624 434.444 255.124 436 260.5 C 436.667 274.167 436.667 287.833 436 301.5 C 433.744 306.757 429.91 310.257 424.5 312 C 370.167 312.667 315.833 312.667 261.5 312 C 255.693 310.193 251.859 306.36 250 300.5 C 249.333 287.167 249.333 273.833 250 260.5 C 252.02 255.315 255.52 251.648 260.5 249.5 Z" stroke-linecap="round" />
</g>
<g transform="matrix(0.37 0 0 0.37 249.87 308.58)"  >
<path style="stroke: none; stroke-width: 1; stroke-dasharray: none; stroke-linecap: butt; stroke-dashoffset: 0; stroke-linejoin: miter; stroke-miterlimit: 4; fill: rgb(255,255,255); fill-rule: evenodd; opacity: 1;" vector-effect="non-scaling-stroke"  transform=" translate(-499.15, -655.99)" d="M 530.5 450.5 C 530.5 467.167 530.5 483.833 530.5 500.5 C 532.167 500.5 533.833 500.5 535.5 500.5 C 558.517 502.764 578.683 511.43 596 526.5 C 598.8 533.903 597.633 540.57 592.5 546.5 C 585.348 553.152 578.348 559.985 571.5 567 C 566.184 571.186 560.184 572.519 553.5 571 C 547.502 567.5 541.169 564.833 534.5 563 C 511.167 562.333 487.833 562.333 464.5 563 C 449.796 569.583 444.629 580.749 449 596.5 C 451.744 604.245 456.911 609.745 464.5 613 C 491.763 621.252 519.096 629.252 546.5 637 C 594.115 652.621 616.282 685.454 613 735.5 C 604.892 780.642 578.058 805.975 532.5 811.5 C 530.515 827.466 529.848 843.799 530.5 860.5 C 529.374 867.604 525.374 872.104 518.5 874 C 505.5 874.667 492.5 874.667 479.5 874 C 474.115 872.404 470.615 868.904 469 863.5 C 468.5 846.17 468.333 828.837 468.5 811.5 C 445.455 810.43 424.788 802.93 406.5 789 C 404.383 787.269 402.883 785.102 402 782.5 C 401.121 777.713 401.455 773.047 403 768.5 C 411.879 759.321 421.045 750.488 430.5 742 C 434.218 739.702 438.218 739.035 442.5 740 C 449.856 743.847 457.523 746.847 465.5 749 C 488.167 749.667 510.833 749.667 533.5 749 C 550.06 741.364 555.227 728.864 549 711.5 C 546.399 707.445 543.232 703.945 539.5 701 C 509.474 691.406 479.308 682.239 449 673.5 C 422.112 665.237 403.112 648.237 392 622.5 C 379.218 588.735 383.885 557.735 406 529.5 C 421.128 512.52 439.961 502.853 462.5 500.5 C 464.5 500.5 466.5 500.5 468.5 500.5 C 468.5 483.833 468.5 467.167 468.5 450.5 C 469.343 444.818 472.343 440.651 477.5 438 C 484.5 437.833 491.5 437.667 498.5 437.5 C 506.573 437.381 514.573 437.881 522.5 439 C 527.272 441.38 529.939 445.213 530.5 450.5 Z" stroke-linecap="round" />
</g>
<g transform="matrix(0.37 0 0 0.37 237.27 241.02)"  >
<path style="stroke: none; stroke-width: 1; stroke-dasharray: none; stroke-linecap: butt; stroke-dashoffset: 0; stroke-linejoin: miter; stroke-miterlimit: 4; fill: rgb(178,178,178); fill-rule: evenodd; opacity: 1;" vector-effect="non-scaling-stroke"  transform=" translate(-465.5, -475.5)" d="M 468.5 450.5 C 468.5 467.167 468.5 483.833 468.5 500.5 C 466.5 500.5 464.5 500.5 462.5 500.5 C 463.919 499.549 465.585 499.216 467.5 499.5 C 467.17 482.991 467.504 466.658 468.5 450.5 Z" stroke-linecap="round" />
</g>
<g transform="matrix(0.37 0 0 0.37 262.54 241.02)"  >
<path style="stroke: none; stroke-width: 1; stroke-dasharray: none; stroke-linecap: butt; stroke-dashoffset: 0; stroke-linejoin: miter; stroke-miterlimit: 4; fill: rgb(176,176,176); fill-rule: evenodd; opacity: 1;" vector-effect="non-scaling-stroke"  transform=" translate(-533, -475.5)" d="M 530.5 450.5 C 531.496 466.658 531.83 482.991 531.5 499.5 C 533.099 499.232 534.432 499.566 535.5 500.5 C 533.833 500.5 532.167 500.5 530.5 500.5 C 530.5 483.833 530.5 467.167 530.5 450.5 Z" stroke-linecap="round" />
</g>
<g transform="matrix(0.37 0 0 0.37 261.93 375.96)"  >
<path style="stroke: none; stroke-width: 1; stroke-dasharray: none; stroke-linecap: butt; stroke-dashoffset: 0; stroke-linejoin: miter; stroke-miterlimit: 4; fill: rgb(175,175,175); fill-rule: evenodd; opacity: 1;" vector-effect="non-scaling-stroke"  transform=" translate(-531.38, -836)" d="M 532.5 811.5 C 531.847 827.931 531.18 844.265 530.5 860.5 C 529.848 843.799 530.515 827.466 532.5 811.5 Z" stroke-linecap="round" />
</g>
<g transform="matrix(0.37 0 0 0.37 422.19 426.5)"  >
<path style="stroke: none; stroke-width: 1; stroke-dasharray: none; stroke-linecap: butt; stroke-dashoffset: 0; stroke-linejoin: miter; stroke-miterlimit: 4; fill: rgb(221,220,227); fill-rule: evenodd; opacity: 1;" vector-effect="non-scaling-stroke"  transform=" translate(-959.5, -971)" d="M 958.5 965.5 C 959.787 966.871 960.453 968.705 960.5 971 C 960.167 972.833 959.833 974.667 959.5 976.5 C 958.798 972.711 958.465 969.045 958.5 965.5 Z" stroke-linecap="round" />
</g>
<g transform="matrix(0.37 0 0 0.37 418.6 426.86)"  >
<path style="stroke: none; stroke-width: 1; stroke-dasharray: none; stroke-linecap: butt; stroke-dashoffset: 0; stroke-linejoin: miter; stroke-miterlimit: 4; fill: rgb(206,205,215); fill-rule: evenodd; opacity: 1;" vector-effect="non-scaling-stroke"  transform=" translate(-949.92, -971.97)" d="M 944.5 968.5 C 947.85 968.335 951.183 968.502 954.5 969 C 955.769 971.139 955.769 973.305 954.5 975.5 C 953.548 973.955 953.215 972.288 953.5 970.5 C 952.5 970.5 951.5 970.5 950.5 970.5 C 950.167 977.167 949.833 977.167 949.5 970.5 C 948.5 970.5 947.5 970.5 946.5 970.5 C 946.785 972.288 946.452 973.955 945.5 975.5 C 944.526 973.257 944.192 970.924 944.5 968.5 Z" stroke-linecap="round" />
</g>
<g transform="matrix(0.37 0 0 0.37 424.1 426.86)"  >
<path style="stroke: none; stroke-width: 1; stroke-dasharray: none; stroke-linecap: butt; stroke-dashoffset: 0; stroke-linejoin: miter; stroke-miterlimit: 4; fill: rgb(207,206,216); fill-rule: evenodd; opacity: 1;" vector-effect="non-scaling-stroke"  transform=" translate(-964.6, -971.99)" d="M 964.5 968.5 C 965.376 968.369 966.043 968.702 966.5 969.5 C 965.173 971.311 964.173 973.311 963.5 975.5 C 962.167 972.862 962.5 970.529 964.5 968.5 Z" stroke-linecap="round" />
</g>
<g transform="matrix(0.37 0 0 0.37 426.85 426.96)"  >
<path style="stroke: none; stroke-width: 1; stroke-dasharray: none; stroke-linecap: butt; stroke-dashoffset: 0; stroke-linejoin: miter; stroke-miterlimit: 4; fill: rgb(206,205,216); fill-rule: evenodd; opacity: 1;" vector-effect="non-scaling-stroke"  transform=" translate(-971.95, -972.25)" d="M 969.5 968.5 C 975.704 968.314 977.037 970.814 973.5 976 C 968.632 975.711 967.299 973.211 969.5 968.5 Z" stroke-linecap="round" />
</g>
<g transform="matrix(0.37 0 0 0.37 427.07 427.07)"  >
<path style="stroke: none; stroke-width: 1; stroke-dasharray: none; stroke-linecap: butt; stroke-dashoffset: 0; stroke-linejoin: miter; stroke-miterlimit: 4; fill: rgb(244,244,245); fill-rule: evenodd; opacity: 1;" vector-effect="non-scaling-stroke"  transform=" translate(-972.52, -972.52)" d="M 970.5 970.5 C 971.833 970.5 973.167 970.5 974.5 970.5 C 974.833 973.5 973.5 974.833 970.5 974.5 C 970.5 973.167 970.5 971.833 970.5 970.5 Z" stroke-linecap="round" />
</g>
</svg>